<?xml version="1.0" encoding="UTF-8" standalone="no"?>
<!-- Created with Inkscape (http://www.inkscape.org/) -->

<svg
   xmlns:dc="http://purl.org/dc/elements/1.1/"
   xmlns:cc="http://creativecommons.org/ns#"
   xmlns:rdf="http://www.w3.org/1999/02/22-rdf-syntax-ns#"
   xmlns:svg="http://www.w3.org/2000/svg"
   xmlns="http://www.w3.org/2000/svg"
   xmlns:sodipodi="http://sodipodi.sourceforge.net/DTD/sodipodi-0.dtd"
   xmlns:inkscape="http://www.inkscape.org/namespaces/inkscape"
   width="200"
   height="200"
   id="svg2"
   version="1.1"
   inkscape:version="0.48.4 r9939"
   sodipodi:docname="Googleplus-icon.svg"
   inkscape:export-filename="C:\Users\Bartek\Pictures\Social-icons\Facebook\Facebook-icon-50.png"
   inkscape:export-xdpi="22.5"
   inkscape:export-ydpi="22.5">
  <defs
     id="defs4" />
  <sodipodi:namedview
     id="base"
     pagecolor="#ffffff"
     bordercolor="#666666"
     borderopacity="1.0"
     inkscape:pageopacity="0.0"
     inkscape:pageshadow="2"
     inkscape:zoom="3.0859375"
     inkscape:cx="110.52672"
     inkscape:cy="84.159189"
     inkscape:document-units="px"
     inkscape:current-layer="layer5"
     showgrid="false"
     showguides="true"
     inkscape:guide-bbox="true"
     inkscape:window-width="1920"
     inkscape:window-height="1017"
     inkscape:window-x="-8"
     inkscape:window-y="-8"
     inkscape:window-maximized="1" />
  <metadata
     id="metadata7">
    <rdf:RDF>
      <cc:Work
         rdf:about="">
        <dc:format>image/svg+xml</dc:format>
        <dc:type
           rdf:resource="http://purl.org/dc/dcmitype/StillImage" />
        <dc:title />
      </cc:Work>
    </rdf:RDF>
  </metadata>
  <g
     inkscape:label="Circle"
     inkscape:groupmode="layer"
     id="layer1"
     transform="translate(0,-852.36218)"
     style="display:inline">
    <path
       style="fill:#dd4b39;fill-opacity:1;stroke:none"
       d="M 100 10 C 50.294373 10 10 50.294373 10 100 C 10 149.70563 50.294373 190 100 190 C 100.75044 190 101.47964 189.9159 102.21875 189.875 C 103.41564 189.8088 104.61665 189.76423 105.8125 189.6875 C 112.38024 189.26605 118.74383 188.07939 124.84375 186.3125 C 130.51682 184.66925 135.96208 182.53052 141.125 179.875 C 159.35118 170.50048 173.81517 155.04961 182.125 136.25 C 183.82639 132.40089 185.3428 128.45478 186.5 124.34375 C 187.4004 121.14502 188.17308 117.89634 188.71875 114.5625 C 189.31774 110.9029 189.67507 107.16509 189.84375 103.375 C 189.8938 102.25049 190 101.13693 190 100 C 190 96.349784 189.70363 92.786476 189.28125 89.25 C 189.19555 88.532251 189.03998 87.837476 188.9375 87.125 C 182.66932 43.544928 145.31458 10 100 10 z "
       id="path5884"
       transform="translate(0,852.36218)" />
  </g>
  <g
     inkscape:groupmode="layer"
     id="layer6"
     inkscape:label="Shadow"
     style="display:inline" />
  <g
     inkscape:groupmode="layer"
     id="layer5"
     inkscape:label="G"
     style="display:inline">
    <path
       style="fill:#ececec;fill-opacity:1;stroke:none;display:inline"
       d="m 72.99069,149.65181 c -12.90203,-1.7588 -21.62238,-7.5602 -23.669653,-15.7467 -0.30231,-1.2089 -0.370836,-2.3159 -0.276584,-4.468 0.147669,-3.3717 0.573756,-5.0855 1.976387,-7.9494 0.85298,-1.7417 1.4471,-2.5215 3.40391,-4.468 2.64993,-2.636 4.82396,-4.0128 8.54718,-5.4129 4.68987,-1.7635 9.92461,-2.7177 16.22526,-2.9574 2.08195,-0.079 3.78536,-0.1993 3.78536,-0.267 0,-0.068 -0.51045,-0.6688 -1.13435,-1.3358 -0.62389,-0.6669 -1.43371,-1.8514 -1.7996,-2.632 -0.59353,-1.2664 -0.66369,-1.7003 -0.65082,-4.0257 0.0116,-2.094902 0.12117,-2.863847 0.5585,-3.918647 0.29924,-0.7218 0.54407,-1.3472 0.54407,-1.3899 0,-0.043 -1.14492,-0.1429 -2.54426,-0.2228 -11.07036,-0.6321 -19.05532,-6.3357 -21.52993,-15.3786 -1.04995,-3.8368 -1.0997,-8.6139 -0.12861,-12.351 1.94773,-7.4955 7.43369,-13.0052 15.52341,-15.5905 4.53081,-1.448 5.92118,-1.5373 23.937599,-1.5373 l 16.311491,0 -3.18767,3.341 -3.18767,3.341 -3.84742,0.018 -3.847411,0.018 0.74466,0.5279 c 1.716451,1.2169 4.018141,3.8817 5.025941,5.8188 2.35247,4.5218 3.07872,10.9639 1.71726,15.2327 -1.31458,4.1218 -3.47582,7.039 -8.014021,10.8171 -2.87092,2.39 -4.613,4.3074 -5.2185,5.7437 -0.51151,1.2133 -0.42166,3.210245 0.20347,4.521645 0.73554,1.543102 3.91268,4.643702 7.651061,7.466602 7.08944,5.3535 10.56825,9.6735 11.96309,14.8559 0.3983,1.4798 0.51391,2.6844 0.52734,5.4945 0.0163,3.4107 -0.0236,3.7181 -0.76254,5.8699 -1.07053,3.1175 -2.55516,5.5136 -4.90183,7.9113 -4.66633,4.7678 -10.934901,7.5404 -19.62251,8.6793 -3.50653,0.4597 -10.93155,0.4569 -14.32261,-0.01 z m 13.83928,-5.4754 c 2.773259,-0.4552 6.592279,-1.7411 8.481989,-2.8561 3.28136,-1.936 5.982141,-5.4214 6.913781,-8.9222 0.47149,-1.7717 0.46483,-5.4631 -0.0132,-7.2982 -1.48185,-5.6893 -6.786601,-10.5529 -13.399021,-12.2848 -8.942119,-2.3422 -18.899549,0.01 -24.589819,5.8098 -2.7841,2.8375 -4.07196,5.5788 -4.26464,9.0777 -0.47789,8.6776 7.30643,15.9399 18.18317,16.9638 1.68195,0.1583 6.33756,-0.1043 8.6877,-0.49 z M 86.58175,90.370863 c 1.871749,-0.5 3.310309,-1.3251 4.571819,-2.6222 2.42777,-2.4963 3.49534,-5.7054 3.49534,-10.507 0,-7.0721 -2.48744,-13.54 -6.950799,-18.0738 -1.72809,-1.7554 -2.49266,-2.3282 -4.21974,-3.1616 -4.98236,-2.4039 -9.52924,-1.6953 -13.12075,2.0449 -2.71604,2.8284 -4.00583,6.5492 -4.00583,11.5558 0,8.6366 4.30756,16.2268 11.1299,19.6117 2.82516,1.4017 6.44856,1.8605 9.10006,1.1522 z m 44.30732,-12.0736 0,-6.7019 -6.82606,0 -6.82606,0 0,-3.351 0,-3.351 6.82606,0 6.82606,0 0,-6.826 0,-6.8261 3.35097,0 3.35098,0 0,6.8261 0,6.826 6.70194,0 6.70194,0 0,3.351 0,3.351 -6.70194,0 -6.70194,0 0,6.7019 0,6.702 -3.35098,0 -3.35097,0 0,-6.702 z"
       id="path5802"
       inkscape:connector-curvature="0" />
    <path
       inkscape:connector-curvature="0"
       style="opacity:0.15;fill:#ffffff;fill-opacity:1;fill-rule:nonzero;stroke:none"
       d="m 100,9.9999955 c -49.705631,0 -90,40.2943695 -90,89.9999985 C 10,149.70566 50.29437,190 100,190 L 100,9.9999955 z"
       id="rect2995" />
  </g>
</svg>
