<?xml version="1.0" encoding="UTF-8" standalone="no"?>
<!-- Created with Inkscape (http://www.inkscape.org/) -->

<svg
   xmlns:dc="http://purl.org/dc/elements/1.1/"
   xmlns:cc="http://creativecommons.org/ns#"
   xmlns:rdf="http://www.w3.org/1999/02/22-rdf-syntax-ns#"
   xmlns:svg="http://www.w3.org/2000/svg"
   xmlns="http://www.w3.org/2000/svg"
   xmlns:sodipodi="http://sodipodi.sourceforge.net/DTD/sodipodi-0.dtd"
   xmlns:inkscape="http://www.inkscape.org/namespaces/inkscape"
   width="200"
   height="200"
   id="svg2"
   version="1.1"
   inkscape:version="0.48.4 r9939"
   sodipodi:docname="Twitter-icon.svg">
  <defs
     id="defs4" />
  <sodipodi:namedview
     id="base"
     pagecolor="#ffffff"
     bordercolor="#666666"
     borderopacity="1.0"
     inkscape:pageopacity="0.0"
     inkscape:pageshadow="2"
     inkscape:zoom="2.1820874"
     inkscape:cx="39.452326"
     inkscape:cy="93.415103"
     inkscape:document-units="px"
     inkscape:current-layer="layer2"
     showgrid="false"
     showguides="true"
     inkscape:guide-bbox="true"
     inkscape:window-width="1920"
     inkscape:window-height="1017"
     inkscape:window-x="-8"
     inkscape:window-y="-8"
     inkscape:window-maximized="1" />
  <metadata
     id="metadata7">
    <rdf:RDF>
      <cc:Work
         rdf:about="">
        <dc:format>image/svg+xml</dc:format>
        <dc:type
           rdf:resource="http://purl.org/dc/dcmitype/StillImage" />
        <dc:title />
      </cc:Work>
    </rdf:RDF>
  </metadata>
  <g
     inkscape:label="Circle"
     inkscape:groupmode="layer"
     id="layer1"
     transform="translate(0,-852.36218)"
     style="display:inline">
    <path
       style="fill:#55acee;fill-opacity:1;stroke:none"
       d="M 100 10 C 50.294373 10 10 50.294373 10 100 C 10 149.70563 50.294373 190 100 190 C 101.96568 190 103.87817 189.81162 105.8125 189.6875 C 152.79114 186.67293 190 147.73995 190 100 C 190 96.349784 189.70363 92.786476 189.28125 89.25 C 183.95201 44.629663 146.05541 10 100 10 z "
       transform="translate(0,852.36218)"
       id="path4404" />
  </g>
  <g
     inkscape:groupmode="layer"
     id="layer3"
     inkscape:label="Shadow" />
  <g
     inkscape:groupmode="layer"
     id="layer2"
     inkscape:label="Bird"
     style="display:inline">
    <path
       style="fill:#ececec;fill-opacity:1;stroke:none;display:inline"
       d="m 84.68315,149.97377 c -7.89147,-0.25115 -15.62299,-2.44565 -22.83317,-6.48085 -0.95588,-0.53495 -2.92245,-1.7512 -3.89183,-2.4069 -0.88299,-0.5973 -2.53066,-1.78635 -2.8143,-2.03095 L 55,138.93097 l 0.21655,0.028 c 2.02661,0.2615 4.64497,0.3288 6.73963,0.17325 8.28011,-0.615 16.04728,-4.10695 22.64082,-10.17885 0.84883,-0.78165 0.85253,-0.76525 -0.1894,-0.83945 -2.8091,-0.2 -5.34251,-1.0063 -7.83417,-2.49334 -1.03168,-0.6157 -1.49947,-0.9431 -2.42111,-1.69425 -3.00869,-2.45225 -5.4309,-5.80225 -7.03673,-9.73215 -0.39014,-0.95475 -1.16083,-3.2631 -1.10843,-3.3198 0.008,-0.01 0.2018,0.021 0.42915,0.0678 2.67645,0.54945 5.69805,0.38915 8.40495,-0.4459 0.32165,-0.0992 0.3554,-0.12055 0.36595,-0.2311 0.011,-0.1171 0,-0.12515 -0.35435,-0.2115 -0.84318,-0.20675 -2.20506,-0.71725 -3.15519,-1.1826 -2.74421,-1.3442 -5.04807,-3.23325 -7.15103,-5.86361 -3.2065,-4.010703 -5.19726,-9.127302 -5.72521,-14.714902 -0.0624,-0.6605 -0.16694,-2.87865 -0.13719,-2.9119 0.009,-0.01 0.35289,0.18475 0.76428,0.4329 2.53341,1.528 5.50916,2.4644 8.20816,2.5829 0.33185,0.0145 0.3347,0.0135 0.3437,-0.1058 0.008,-0.1036 -0.0529,-0.1724 -0.43304,-0.49115 -0.93979,-0.78795 -1.83637,-1.7283 -2.82386,-2.9616 -1.63042,-2.03634 -2.79875,-4.066493 -3.82163,-6.640893 -1.03303,-2.599801 -1.65577,-5.244652 -1.95237,-8.291802 -0.10095,-1.0373 -0.102,-4.2504 0,-5.317401 0.2956,-3.14555 0.96599,-5.91845 2.09332,-8.658401 0.21809,-0.53015 0.42414,-1.0121 0.45789,-1.071 0.0603,-0.10535 0.0715,-0.0925 0.65179,0.74695 1.04513,1.51185 2.04936,2.842551 3.31964,4.398801 1.69482,2.0764 3.046,3.5657 4.80392,5.294901 9.0553,8.907401 19.989258,14.301952 31.55312,15.567602 1.43942,0.15755 2.33966,0.2177 2.38715,0.15955 0.03,-0.0365 0,-0.30215 -0.0988,-0.9115 -0.27374,-1.6716 -0.37909,-3.0492 -0.37879,-4.954101 4e-4,-1.36665 0.0587,-2.432701 0.19795,-3.609201 0.55244,-4.6665 2.21056,-9.123051 4.74557,-12.754551 0.49684,-0.711751 1.63977,-2.110951 2.22121,-2.719151 6.0529,-6.331951 14.46111,-7.849951 21.73088,-3.9232 2.23997,1.2099 4.27513,2.90815 6.12305,5.1095 0.34109,0.40625 0.63081,0.71345 0.67283,0.7133 0.10544,-4.5e-4 1.74697,-0.4525 2.37679,-0.6547 3.58164,-1.14985 7.05701,-2.87315 10.07168,-4.99415 0.2238,-0.15745 0.41506,-0.27635 0.42501,-0.26415 0.0233,0.0285 -0.31673,1.15575 -0.55537,1.841 -0.29104,0.83575 -0.849,2.16895 -1.24432,2.9733 -0.94459,1.921851 -1.81733,3.284601 -3.14399,4.909151 -1.13121,1.38525 -2.2258,2.47465 -3.39807,3.381951 -0.57819,0.44755 -0.58023,0.44955 -0.58023,0.56875 0,0.1263 0.0478,0.12395 1.04324,-0.05165 3.42975,-0.60515 6.54839,-1.638301 9.79865,-3.246251 0.40926,-0.20245 0.74954,-0.36145 0.75617,-0.35335 0.0202,0.025 -1.02743,1.79585 -1.5148,2.5609 -2.25306,3.536901 -4.91237,6.751001 -7.78517,9.409302 -0.41654,0.3854 -0.76389,0.72575 -0.77189,0.7562 -0.008,0.0305 -0.002,0.47835 0.0133,0.9952 0.28902,9.753144 -1.30018,20.249444 -4.51297,29.807106 -1.06716,3.17465 -2.4432,6.58045 -3.84357,9.5132 -1.74472,3.65385 -3.81734,7.23845 -6.03555,10.4385 -1.68422,2.42974 -3.91568,5.20859 -5.8868,7.33089 -6.57904,7.0836 -14.448,12.14665 -23.01456,14.8079 -5.378713,1.67095 -11.21051,2.4505 -16.962818,2.2674 z"
       id="path3040"
       inkscape:connector-curvature="0" />
    <path
       inkscape:connector-curvature="0"
       style="opacity:0.15;fill:#ffffff;fill-opacity:1;fill-rule:nonzero;stroke:none;display:inline"
       d="M 99,9.999999 C 49.294371,9.999999 9.000002,50.294368 9.000002,99.999997 9.000002,149.70566 49.294372,190 99,190 L 99,9.999999 z"
       id="rect2995" />
  </g>
</svg>
